<?xml version="1.0" encoding="UTF-8"?>
<!DOCTYPE svg PUBLIC "-//W3C//DTD SVG 1.1//EN" "http://www.w3.org/Graphics/SVG/1.1/DTD/svg11.dtd">
<!-- Creator: CorelDRAW 2019 (64-Bit) -->
<svg xmlns="http://www.w3.org/2000/svg" xml:space="preserve" width="60.79mm" height="6.747mm" version="1.1" style="shape-rendering:geometricPrecision; text-rendering:geometricPrecision; image-rendering:optimizeQuality; fill-rule:evenodd; clip-rule:evenodd"
viewBox="0 0 6079 674.7"
 xmlns:xlink="http://www.w3.org/1999/xlink"
 xmlns:xodm="http://www.corel.com/coreldraw/odm/2003">
 <defs>
  <style type="text/css">
   <![CDATA[
    .fil5 {fill:black}
    .fil2 {fill:#D3CDBF}
    .fil4 {fill:#FFB545}
    .fil3 {fill:#FFCF5D}
    .fil1 {fill:#FFF9EB}
    .fil0 {fill:#EBEBEB;fill-rule:nonzero}
   ]]>
  </style>
 </defs>
 <g id="Capa_x0020_1">
  <metadata id="CorelCorpID_0Corel-Layer"/>
  <path class="fil0" d="M1164.38 256.36l-109.16 0c0,-14.39 -5.28,-25.61 -15.87,-33.65 -10.57,-8.02 -24.53,-12.04 -41.88,-12.04 -16.92,0 -30.67,3.48 -41.24,10.46 -10.59,6.98 -15.88,16.39 -15.88,28.23 0,3.82 0.86,7.41 2.55,10.8 1.69,3.38 3.59,6.14 5.71,8.24 2.11,2.12 5.18,4.13 9.2,6.03 4.02,1.92 7.5,3.39 10.48,4.45 2.96,1.06 6.86,1.9 11.72,2.53 4.88,0.63 8.47,1.06 10.8,1.28 2.32,0.21 5.82,0.53 10.48,0.95l6.34 0.64c19.45,2.53 36.17,5.49 50.13,8.87 13.95,3.39 29.29,8.79 46,16.2 16.72,7.39 30.58,17.75 41.58,31.08 11,13.33 18.82,29.52 23.47,48.56 2.13,11.43 3.19,21.77 3.19,31.1 0,44 -17.78,79.32 -53.31,105.98 -35.55,26.65 -75.95,39.98 -121.22,39.98 -19.04,0 -38.17,-3.07 -57.44,-9.22 -19.24,-6.12 -37.54,-15.11 -54.88,-26.97 -17.35,-11.83 -31.42,-28.34 -42.22,-49.49 -10.77,-21.16 -16.17,-45.06 -16.17,-71.71l109.79 0c0,19.45 6.24,33 18.73,40.61 12.47,7.62 26.74,11.43 42.82,11.43 42.74,0 64.1,-11.85 64.1,-35.55 0,-4.22 -0.85,-8.13 -2.53,-11.72 -1.69,-3.61 -4.45,-6.57 -8.26,-8.9 -3.8,-2.33 -7.3,-4.23 -10.46,-5.71 -3.18,-1.47 -7.52,-2.74 -13.01,-3.8 -5.51,-1.06 -9.62,-1.92 -12.38,-2.55 -2.75,-0.63 -6.77,-1.15 -12.06,-1.58 -5.28,-0.43 -8.15,-0.64 -8.56,-0.64 -17.35,-1.69 -32.16,-3.59 -44.43,-5.71 -12.26,-2.12 -26.13,-6.03 -41.58,-11.74 -15.43,-5.72 -28.23,-12.79 -38.38,-21.26 -10.16,-8.47 -19.04,-20.1 -26.65,-34.9 -7.63,-14.81 -12.28,-31.94 -13.98,-51.4l0 0.63c-2.53,-47.39 12.7,-85.24 45.7,-113.59 33,-28.35 74.26,-42.53 123.75,-42.53 27.94,0 53.96,4.88 78.06,14.59 24.12,9.74 44.63,26.13 61.57,49.19 16.92,23.06 25.38,50.67 25.38,82.83zm337.63 303.97l-24.76 -65.36 -151.67 0 -24.75 65.36 -116.14 0 177.69 -449.31 77.43 0 184.67 449.31 -122.47 0zm-100.28 -270.34l-33 93.92 -3.8 10.16 73.61 0 -2.55 -7.63 -34.26 -96.45zm369.99 -173.89l0 339.52 186.58 0 0 104.71 -295.09 0 0 -444.23 108.51 0zm576.23 0l0 15.87 -171.34 429.63 -78.7 0 -170.71 -425.2 0 -20.3 111.06 0 73.61 185.3 26.02 85.69 26.02 -85.69 73.61 -185.3 110.43 0zm281.79 444.23l-24.76 -65.36 -151.67 0 -24.75 65.36 -116.14 0 177.69 -449.31 77.43 0 184.67 449.31 -122.47 0zm-100.28 -270.34l-33 93.92 -3.8 10.16 73.61 0 -2.55 -7.63 -34.26 -96.45zm608.6 -173.89l0 15.87 -171.35 429.63 -78.69 0 -170.71 -425.2 0 -20.3 111.06 0 73.61 185.3 26.02 85.69 26.02 -85.69 73.61 -185.3 110.43 0zm305.89 0l0 99 -73.62 0 0 248.13 73.62 0 0 97.1 -255.75 0 0 -97.1 73.61 0 0 -248.13 -73.61 0 0 -99 255.75 0zm160.54 340.79l59.66 0c35.55,0 63.24,-11.75 83.14,-35.22 19.87,-23.49 29.81,-51.09 29.81,-82.82 0,-31.74 -10.03,-59.65 -30.13,-83.78 -20.1,-24.1 -47.7,-36.16 -82.82,-36.16l-59.66 0 0 237.98zm-107.87 -340.79l167.53 0c35.55,0 67.58,6.34 96.15,19.04 28.55,12.69 51.61,29.61 69.16,50.77 17.57,21.14 31.1,44.84 40.63,71.08 9.51,26.23 14.28,53.51 14.28,81.86 0,28.34 -4.66,55.54 -13.96,81.56 -9.31,26.02 -22.86,49.6 -40.63,70.74 -17.76,21.16 -40.93,37.99 -69.48,50.46 -28.57,12.49 -60.6,18.72 -96.15,18.72l-167.53 0 0 -444.23zm705.06 444.23l-24.75 -65.36 -151.67 0 -24.75 65.36 -116.14 0 177.69 -449.31 77.42 0 184.67 449.31 -122.47 0zm-100.28 -270.34l-33 93.92 -3.79 10.16 73.61 0 -2.55 -7.63 -34.27 -96.45zm575.62 -33.63l-109.16 0c0,-14.39 -5.29,-25.61 -15.88,-33.65 -10.57,-8.02 -24.53,-12.04 -41.87,-12.04 -16.92,0 -30.68,3.48 -41.25,10.46 -10.59,6.98 -15.87,16.39 -15.87,28.23 0,3.82 0.85,7.41 2.55,10.8 1.69,3.38 3.59,6.14 5.71,8.24 2.1,2.12 5.17,4.13 9.19,6.03 4.02,1.92 7.5,3.39 10.48,4.45 2.96,1.06 6.87,1.9 11.73,2.53 4.87,0.63 8.47,1.06 10.79,1.28 2.33,0.21 5.83,0.53 10.48,0.95l6.35 0.64c19.45,2.53 36.16,5.49 50.12,8.87 13.96,3.39 29.3,8.79 46.01,16.2 16.71,7.39 30.58,17.75 41.58,31.08 11,13.33 18.82,29.52 23.47,48.56 2.12,11.43 3.18,21.77 3.18,31.1 0,44 -17.77,79.32 -53.3,105.98 -35.55,26.65 -75.96,39.98 -121.22,39.98 -19.04,0 -38.18,-3.07 -57.44,-9.22 -19.25,-6.12 -37.54,-15.11 -54.89,-26.97 -17.34,-11.83 -31.42,-28.34 -42.21,-49.49 -10.78,-21.16 -16.17,-45.06 -16.17,-71.71l109.79 0c0,19.45 6.23,33 18.72,40.61 12.47,7.62 26.75,11.43 42.83,11.43 42.73,0 64.1,-11.85 64.1,-35.55 0,-4.22 -0.86,-8.13 -2.53,-11.72 -1.7,-3.61 -4.45,-6.57 -8.27,-8.9 -3.79,-2.33 -7.29,-4.23 -10.46,-5.71 -3.18,-1.47 -7.51,-2.74 -13.01,-3.8 -5.5,-1.06 -9.62,-1.92 -12.37,-2.55 -2.76,-0.63 -6.78,-1.15 -12.06,-1.58 -5.29,-0.43 -8.16,-0.64 -8.56,-0.64 -17.35,-1.69 -32.17,-3.59 -44.43,-5.71 -12.27,-2.12 -26.13,-6.03 -41.58,-11.74 -15.43,-5.72 -28.24,-12.79 -38.38,-21.26 -10.16,-8.47 -19.04,-20.1 -26.65,-34.9 -7.63,-14.81 -12.29,-31.94 -13.98,-51.4l0 0.63c-2.53,-47.39 12.69,-85.24 45.69,-113.59 33,-28.35 74.27,-42.53 123.75,-42.53 27.94,0 53.96,4.88 78.06,14.59 24.13,9.74 44.64,26.13 61.57,49.19 16.92,23.06 25.39,50.67 25.39,82.83zm509.6 303.97l-24.75 -65.36 -151.67 0 -24.76 65.36 -116.14 0 177.69 -449.31 77.43 0 184.67 449.31 -122.47 0zm-100.28 -270.34l-33 93.92 -3.8 10.16 73.61 0 -2.55 -7.63 -34.26 -96.45zm519.13 37.43l90.1 57.75 -38.06 48.88 57.1 65.36 0 61.55 -93.28 0 -31.1 -37.44c-28.76,28.34 -65.78,42.53 -111.06,42.53 -43.15,0 -79.1,-13.13 -107.88,-39.35 -28.77,-26.22 -43.16,-60.92 -43.16,-104.08 0,-26.22 5.6,-48.22 16.82,-66 11.21,-17.77 27.18,-34.26 47.91,-49.51 -17.34,-25.38 -26.02,-51.18 -26.02,-77.42 0,-36.37 13.01,-65.57 39.03,-87.57 26.02,-22 57.01,-33 92.97,-33 32.59,0 61.14,11 85.67,33 24.55,22 36.82,49.71 36.82,83.14 0,42.73 -19.88,77.63 -59.66,104.71l24.13 24.1 19.67 -26.65zm-79.98 118.04l-62.81 -65.37c-8.04,6.35 -14.6,13.01 -19.68,20.01 -5.08,6.98 -8.15,15.22 -9.21,24.74 -1.04,9.53 2.66,18.51 11.11,26.96 9.31,11 22.11,15.99 38.4,14.93 16.28,-1.06 30.36,-8.15 42.19,-21.27zm-5.69 -222.12c0.41,-9.72 -3.93,-16.69 -13.01,-20.94 -9.1,-4.22 -18.09,-4.11 -26.99,0.32 -8.88,4.45 -13.33,12.6 -13.33,24.44 0,8.87 7,21.36 20.96,37.44 21.14,-14.38 31.94,-28.14 32.37,-41.26zm354.75 167.55l0 64.73 184.03 0 0 104.71 -293.18 0 0 -444.23 292.55 0 0 104.71 -183.4 0 0 64.73 179.6 0 0 105.35 -179.6 0z"/>
  <g id="holding.svg">
   <path class="fil1" d="M380.54 100.15c-8.6,1.02 -16.46,4.04 -23.17,8.53 -8.33,-48.08 -53.5,-81.04 -102.07,-73.94 -31.32,4.59 -56.52,24.72 -68.92,51.43 -4.41,-14.96 -19.82,-24.51 -35.79,-20.77 -13.78,3.22 -23.59,15.98 -23.17,30.12 0.21,7.2 2.88,13.57 7.06,18.54 -0.12,0.03 -0.24,0.07 -0.37,0.11 -19.15,5.71 -30.97,24.91 -28.08,44.68l1.34 9.14c-15.7,14.48 -24.24,36.2 -20.92,58.88l141.71 126.91 210.83 -207.87c-4.16,-28.4 -29.94,-49.12 -58.45,-45.76z"/>
   <g>
    <path class="fil2" d="M379.06 100.46c-8.02,1.17 -15.35,4.1 -21.67,8.33 -7.57,-43.7 -45.57,-74.9 -88.9,-74.89 -3.02,15.64 5.38,31.73 20.73,37.85 18.4,7.34 31.41,23.35 34.78,42.83l23.1 157.87 96.65 -93.94 -4.9 -33.53c-4.21,-28.8 -30.98,-48.74 -59.79,-44.52z"/>
    <path class="fil2" d="M153.18 65.01c-12.58,1.84 -22.18,11.23 -24.93,22.9l9.67 -1.42c8.28,-1.21 15.97,4.52 17.19,12.81 7.56,18.24 35.06,10.47 32.2,-9.08l-0.65 -4.48c-0.09,0.18 -0.18,0.36 -0.27,0.54 -4.16,-14.15 -18.18,-23.46 -33.21,-21.27z"/>
   </g>
   <path class="fil3" d="M16.66 374.06l6.54 44.71c7.23,49.38 53.11,83.56 102.49,76.33l0 0 3.27 22.36c5.42,37.03 39.83,62.66 76.87,57.24l178.82 -26.16c37.04,-5.42 62.67,-39.84 57.25,-76.87l-42.52 -290.58c-1.8,-12.35 -13.27,-20.89 -25.62,-19.08l-268.23 39.24c-12.35,1.81 -20.89,13.28 -19.08,25.62l6.54 44.71 0 0c-49.38,7.22 -83.55,53.1 -76.33,102.48zm44.7 -6.54c-3.6,-24.65 13.52,-47.63 38.17,-51.24l19.62 134.12c-24.65,3.6 -47.64,-13.52 -51.24,-38.16l-6.55 -44.72z"/>
   <g>
    <path class="fil4" d="M285.43 494.56c12.34,-1.81 20.89,-13.28 19.08,-25.62l-32.7 -223.53c-1.81,-12.34 -13.28,-20.88 -25.62,-19.08 -12.35,1.81 -20.89,13.28 -19.09,25.62l32.71 223.53c1.8,12.34 13.27,20.89 25.62,19.08z"/>
    <path class="fil4" d="M196.19 507.62c12.34,-1.81 20.88,-13.28 19.08,-25.62l-32.71 -223.53c-1.8,-12.34 -13.27,-20.89 -25.62,-19.08 -12.34,1.8 -20.89,13.28 -19.08,25.62l32.7 223.53c1.81,12.34 13.28,20.88 25.63,19.08z"/>
    <path class="fil4" d="M403.5 511.53l-32.07 -219.16c-1.76,-12.04 -12.52,-21.04 -24.63,-19.85 -12.92,1.27 -22.02,13.05 -20.16,25.75l25.61 175.1c3.62,24.69 -13.47,47.63 -38.16,51.24l-171.23 25.06c14.53,18.34 38.15,28.66 62.97,25.03 193.22,-28.27 181.5,-26.25 188.28,-28.25 20.17,-5.96 36.11,-20.91 43.7,-39.94l0 0 -34.31 5.02 0 0z"/>
   </g>
   <path class="fil1" d="M600.84 174.47c-8.61,1.01 -16.46,4.04 -23.17,8.53 -8.34,-48.08 -53.5,-81.05 -102.08,-73.94 -31.32,4.58 -56.51,24.72 -68.92,51.43 -4.41,-14.96 -19.82,-24.51 -35.79,-20.78 -13.78,3.23 -23.59,15.99 -23.17,30.13 0.21,7.2 2.89,13.56 7.07,18.54 -0.13,0.03 -0.25,0.07 -0.37,0.11 -19.15,5.71 -30.98,24.91 -28.08,44.68l1.33 9.14c-15.7,14.48 -24.24,36.2 -20.92,58.88l14.72 100.58c3.54,24.24 26.15,41.08 50.39,37.53l76.6 -11.21 219.4 -149.29 -8.57 -58.57c-4.16,-28.4 -29.94,-49.12 -58.44,-45.76z"/>
   <path class="fil2" d="M599.36 174.77c-8.03,1.18 -15.36,4.11 -21.68,8.34 -7.57,-43.7 -45.57,-74.9 -88.89,-74.9 -3.02,15.65 5.37,31.74 20.72,37.86 18.41,7.34 31.41,23.35 34.79,42.83 1.96,11.3 9.5,20.84 20.05,25.36 10.55,4.51 22.66,3.38 32.19,-3 2.32,-1.55 4.92,-2.55 7.72,-2.96 10.27,-1.5 19.85,5.63 21.35,15.9 2.71,18.52 19.92,31.33 38.44,28.63l-4.91 -33.53c-4.21,-28.81 -30.98,-48.74 -59.78,-44.53z"/>
   <path class="fil3" d="M670.03 293.7l0 0 -6.54 -44.7c-1.81,-12.35 -13.28,-20.89 -25.62,-19.09l-268.24 39.25c-12.34,1.8 -20.89,13.28 -19.08,25.62l42.51 290.58c5.42,37.04 39.84,62.67 76.87,57.25l178.83 -26.16c37.03,-5.42 62.66,-39.84 57.24,-76.87l-3.27 -22.36 0 0c49.38,-7.22 83.55,-53.11 76.33,-102.48l-6.54 -44.71c-7.23,-49.38 -53.11,-83.56 -102.49,-76.33zm64.32 127.58c3.61,24.65 -13.51,47.63 -38.16,51.24l-19.62 -134.12c24.65,-3.6 47.64,13.52 51.24,38.17l6.54 44.71z"/>
   <g>
    <path class="fil4" d="M460.12 575.55c-12.34,1.81 -23.82,-6.74 -25.62,-19.08l-32.71 -223.53c-1.8,-12.34 6.74,-23.81 19.09,-25.62 12.34,-1.8 23.81,6.74 25.62,19.08l32.7 223.53c1.81,12.34 -6.74,23.82 -19.08,25.62z"/>
    <path class="fil4" d="M549.53 562.47c-12.34,1.81 -23.81,-6.74 -25.62,-19.08l-32.7 -223.53c-1.81,-12.34 6.73,-23.81 19.08,-25.62 12.34,-1.81 23.81,6.74 25.62,19.08l32.7 223.53c1.81,12.34 -6.73,23.81 -19.08,25.62z"/>
    <path class="fil4" d="M670.03 293.7l0 0 -6.54 -44.7c-1.81,-12.35 -13.28,-20.89 -25.62,-19.09l-11.18 1.64c1.43,9.8 3.73,25.47 6.54,44.7l-33.53 4.91c-12.34,1.8 -20.89,13.28 -19.08,25.62l32.7 223.53c1.81,12.34 13.28,20.88 25.63,19.08l33.52 -4.91 0 0c2.71,18.49 -10.13,35.73 -28.62,38.44l-236.89 34.66c14.53,18.34 38.15,28.66 62.97,25.03l178.83 -26.16c37.03,-5.42 62.66,-39.84 57.24,-76.87l-3.27 -22.36 0 0c49.38,-7.22 83.55,-53.11 76.33,-102.48l-6.54 -44.71c-7.23,-49.38 -53.11,-83.56 -102.49,-76.33zm64.32 127.58c3.61,24.65 -13.51,47.63 -38.16,51.24l-19.62 -134.12c24.65,-3.6 47.64,13.52 51.24,38.17l6.54 44.71z"/>
   </g>
   <path class="fil5" d="M409.7 308.96c0.9,6.17 6.64,10.44 12.81,9.54 6.16,-0.9 11.91,3.38 12.81,9.54l32.7 223.52c0.91,6.17 -3.37,11.91 -9.54,12.82 -6.16,0.9 -11.91,-3.38 -12.81,-9.55 -0.9,-6.17 -6.64,-10.44 -12.81,-9.54 -21.54,3.16 -4.19,46.28 28.89,41.44 18.49,-2.71 31.33,-19.95 28.63,-38.44l-32.71 -223.52c-4.85,-33.14 -51.12,-37.31 -47.97,-15.81z"/>
   <path class="fil5" d="M508.65 283.06c-6.17,0.91 -10.44,6.64 -9.54,12.82 0.91,6.17 6.64,10.44 12.81,9.54 6.17,-0.91 11.91,3.37 12.81,9.54l32.71 223.52c0.9,6.17 -3.38,11.91 -9.54,12.81 -6.17,0.91 -11.91,-3.37 -12.81,-9.54 -0.91,-6.17 -6.64,-10.44 -12.81,-9.54 -21.55,3.15 -4.19,46.28 28.89,41.44 18.48,-2.71 31.32,-19.95 28.62,-38.44l-32.7 -223.52c-2.71,-18.49 -19.95,-31.33 -38.44,-28.63z"/>
   <path class="fil5" d="M588.53 282.79c0.9,6.18 6.63,10.45 12.81,9.54 6.16,-0.9 11.91,3.38 12.81,9.54l32.7 223.53c0.9,6.16 -3.38,11.91 -9.54,12.81 -6.16,0.9 -11.91,-3.38 -12.81,-9.54 -0.9,-6.17 -6.64,-10.44 -12.81,-9.54 -21.54,3.15 -4.19,46.27 28.89,41.43 18.49,-2.7 31.33,-19.94 28.62,-38.43l-32.7 -223.53c-4.85,-33.13 -51.12,-37.3 -47.97,-15.81z"/>
   <path class="fil5" d="M679.66 281.51c-5.3,-36.24 -4.67,-42.53 -13.64,-52.22 3.22,-2.4 5.06,-6.44 4.44,-10.69 -5.06,-34.53 -36.88,-59.36 -70.94,-55.35 -4.96,0.58 -9.74,1.71 -14.32,3.36 -20.17,-61.49 -93.2,-89.33 -149.57,-54.9 -17.37,-20.93 -45.44,-28.54 -70.72,-19.42 -25.54,-77.82 -130.12,-95.41 -178.95,-27.66 -9.81,-9.25 -23.93,-13.52 -37.94,-10.23 -23.92,5.59 -37.97,31.09 -29.41,54.49 -16.96,10.63 -26.79,30.85 -23.75,51.59 0.9,6.18 6.64,10.45 12.81,9.55 6.17,-0.91 10.44,-6.64 9.54,-12.82 -2.03,-13.88 6.06,-28.09 20.42,-32.3 7.84,-2.27 10.76,-11.88 5.5,-18.12 -9.26,-11.02 -3.04,-27.34 10.03,-30.4 9.74,-2.3 19.57,3.42 22.39,12.97 2.93,9.97 16.7,11 21.08,1.57 32.22,-69.41 136.25,-57.39 149.62,19.68 0.65,3.77 3.17,6.95 6.68,8.45 9.66,4.14 11.48,-5.65 28.94,-7.69 13.66,-1.61 26.98,3.86 35.91,14.24 -4.19,4.09 -8.07,8.53 -11.53,13.34 -23.47,-22.13 -62.04,-10.2 -68.89,21.31 -1.55,2.68 -2.01,5.97 -0.93,9.21 0.06,4.9 0.87,9.34 2.47,13.74 -16.96,10.62 -26.78,30.85 -23.75,51.59l0.52 3.53c-16.07,17.31 -23.55,40.99 -20.11,64.5l14.72 100.58c3.89,26.56 25.97,46.04 51.71,47.58l12.81 87.57 -170.61 24.96c-30.78,4.51 -59.52,-16.71 -64.05,-47.7l-3.27 -22.35c-0.9,-6.14 -6.64,-10.45 -12.82,-9.54 -43.12,6.31 -83.34,-23.47 -89.67,-66.79l-6.55 -44.72c-6.26,-42.84 23.19,-83.27 66.79,-89.68 2.94,-0.43 5.65,-2.04 7.42,-4.42 3.73,-5.01 2.61,-5.02 -4.42,-53.08 -0.88,-6.15 3.39,-11.91 9.54,-12.82l196.91 -28.81c6.15,-0.9 10.44,-6.64 9.54,-12.8 -0.9,-6.17 -6.64,-10.44 -12.8,-9.54l-0.01 -0.01 -196.91 28.8c-8.95,1.33 -16.86,6.05 -22.27,13.31 -5.41,7.24 -7.66,16.17 -6.35,25.14l5 34.14c-49.64,12.95 -82.34,61.44 -74.79,113.04l6.55 44.72c7.54,51.58 52.71,88.67 104.03,86.89 1.71,11.7 3.21,41.76 32.74,63.75 16.87,12.57 37.81,17.88 58.66,14.82l170.61 -24.96 3.82 26.09c6.31,43.13 46.54,73.1 89.68,66.78l178.82 -26.16c43.14,-6.31 73.1,-46.54 66.79,-89.68l-1.73 -11.79c49.41,-12.93 82.35,-61.36 74.78,-113.05l-6.54 -44.71c-7.56,-51.68 -52.99,-88.65 -104.03,-86.88zm-347.03 118.63l-14.71 -100.59c-2.66,-18.14 3.85,-36.44 17.4,-48.94 2.74,-2.53 4.06,-6.25 3.52,-9.94l-1.34 -9.14c-2.09,-14.32 6.56,-28.17 20.13,-32.22 0.01,0 0.4,-0.11 0.41,-0.12 7.75,-2.34 10.61,-11.87 5.38,-18.08 -9.26,-11.02 -3.04,-27.34 10.03,-30.4 9.77,-2.3 19.57,3.42 22.39,12.98 2.94,9.96 16.71,10.99 21.08,1.56 32.23,-69.41 136.26,-57.39 149.62,19.68 0.65,3.77 3.17,6.95 6.68,8.45 3.52,1.51 7.56,1.13 10.73,-0.99 5.47,-3.67 11.61,-5.94 18.21,-6.7 21.09,-2.48 40.86,12.28 45.41,33.32 -8.07,-1.58 9.67,-3.34 -279.58,38.97 -18.48,2.71 -31.32,19.95 -28.62,38.44l19.22 131.38c-13.17,-2.76 -23.89,-13.53 -25.96,-27.66zm435.25 16.23c6.31,43.14 -23.65,83.37 -66.78,89.68 -6.18,0.9 -10.45,6.64 -9.54,12.81l3.27 22.35c4.5,30.82 -16.9,59.55 -47.71,64.06l-178.83 26.16c-30.81,4.51 -59.54,-16.89 -64.05,-47.7l-42.52 -290.58c-0.9,-6.17 3.38,-11.91 9.55,-12.82l268.23 -39.24c6.16,-0.9 11.91,3.38 12.81,9.54l6.54 44.71c0.91,6.17 6.64,10.44 12.81,9.54 43.14,-6.32 83.37,23.65 89.68,66.78l6.54 44.71z"/>
   <path class="fil5" d="M674.93 327.23c-6.13,0.9 -10.44,6.63 -9.54,12.81l13.08 89.41c0.91,6.17 6.64,10.44 12.82,9.54 6.16,-0.91 10.44,-6.64 9.54,-12.81l-11.17 -76.33c13.51,2.69 24.82,13.63 26.98,28.35l6.54 44.72c2.68,18.32 -9.99,35.69 -28.62,38.42 -6.18,0.9 -10.45,6.66 -9.55,12.81 0.91,6.17 6.65,10.44 12.82,9.54 30.72,-4.49 52.21,-33.04 47.7,-64.04l-6.54 -44.72c-2.2,-14.91 -10.06,-28.1 -22.16,-37.11 -12.1,-9 -26.98,-12.76 -41.9,-10.59z"/>
   <path class="fil5" d="M120.78 461.57c6.17,-0.9 10.45,-6.64 9.55,-12.81 -21.29,-145.48 -18.85,-137.66 -24.06,-141.54 -2.38,-1.77 -5.44,-2.54 -8.38,-2.11 -30.72,4.5 -52.21,33.04 -47.7,64.04 6.82,46.63 6.17,57.97 19.84,73.62 4.08,4.67 11.16,5.23 15.94,1.08 4.65,-4.08 5.21,-11.16 1.08,-15.94 -8.43,-9.66 -7.61,-14.85 -14.51,-62.03 -1.31,-8.91 0.96,-17.84 6.37,-25.12 3.06,-4.12 6.89,-7.4 11.36,-9.76l17.7 121.03c0.91,6.17 6.65,10.45 12.81,9.54z"/>
   <path class="fil5" d="M247.82 237.51c6.17,-0.91 10.44,-6.64 9.54,-12.81 -3.15,-21.55 -46.27,-4.19 -41.43,28.89l32.7 223.52c2.7,18.49 19.94,31.33 38.43,28.63 33.31,-4.88 37.06,-51.09 15.81,-47.98 -6.17,0.91 -10.44,6.64 -9.54,12.81 0.91,6.17 -3.37,11.91 -9.54,12.81 -6.16,0.91 -11.91,-3.37 -12.81,-9.54l-32.7 -223.52c-0.9,-6.17 3.38,-11.91 9.54,-12.81z"/>
   <path class="fil5" d="M158.58 250.56c6.17,-0.9 10.44,-6.63 9.54,-12.81 -3.15,-21.54 -46.28,-4.19 -41.44,28.89l32.71 223.53c2.7,18.49 19.94,31.33 38.43,28.62 33.31,-4.87 37.06,-51.08 15.81,-47.97 -6.17,0.9 -10.44,6.64 -9.54,12.81 0.9,6.16 -3.38,11.91 -9.54,12.81 -6.16,0.9 -11.91,-3.38 -12.81,-9.54l-32.7 -223.53c-0.91,-6.16 3.38,-11.91 9.54,-12.81z"/>
   <g>
   </g>
   <g>
   </g>
   <g>
   </g>
   <g>
   </g>
   <g>
   </g>
   <g>
   </g>
   <g>
   </g>
   <g>
   </g>
   <g>
   </g>
   <g>
   </g>
   <g>
   </g>
   <g>
   </g>
   <g>
   </g>
   <g>
   </g>
   <g>
   </g>
  </g>
 </g>
</svg>
